<svg xmlns="http://www.w3.org/2000/svg" width="120" height="120" viewBox="0 0 120 120" fill="none">
	<path d="M0 28.2353C0 12.6414 12.6414 0 28.2353 0H91.7647C107.359 0 120 12.6414 120 28.2353V91.7647C120 107.359 107.359 120 91.7647 120H28.2353C12.6414 120 0 107.359 0 91.7647V28.2353Z" fill="url(#paint0_linear_1024_1694)" />
	<g clip-path="url(#clip0_1024_1694)">
		<path d="M51.8615 94.7982L84.2944 64.4808C85.5681 63.2894 85.6804 61.2743 84.5432 59.9808C84.1376 59.5187 83.6063 59.193 83.0162 59.0448L64.6771 54.4288L70.4113 31.6468C70.8413 29.9384 69.8514 28.2158 68.1997 27.8C67.1993 27.5482 66.1359 27.8302 65.3641 28.5512L32.9312 58.8687C31.6575 60.06 31.5455 62.0741 32.6815 63.3684C33.0872 63.8309 33.6188 64.157 34.2091 64.3057L52.5483 68.9216L46.8143 91.7026C46.3843 93.4111 47.3742 95.1337 49.026 95.5494C50.0263 95.8012 51.0907 95.5195 51.8615 94.7982Z" fill="white" />
		<path d="M51.8615 94.7982L84.2944 64.4808C85.5681 63.2894 85.6804 61.2743 84.5432 59.9808C84.1376 59.5187 83.6063 59.193 83.0162 59.0448L64.6771 54.4288L70.4113 31.6468C70.8413 29.9384 69.8514 28.2158 68.1997 27.8C67.1993 27.5482 66.1359 27.8302 65.3641 28.5512L32.9312 58.8687C31.6575 60.06 31.5455 62.0741 32.6815 63.3684C33.0872 63.8309 33.6188 64.157 34.2091 64.3057L52.5483 68.9216L46.8143 91.7026C46.3843 93.4111 47.3742 95.1337 49.026 95.5494C50.0263 95.8012 51.0907 95.5195 51.8615 94.7982Z" fill="white" />
	</g>
	<defs>
		<linearGradient id="paint0_linear_1024_1694" x1="60" y1="0" x2="60" y2="120" gradientUnits="userSpaceOnUse">
			
			<stop stop-color="#fcfc" />
			<stop offset="1" stop-color="#dff" />
			
		</linearGradient>
		<clipPath id="clip0_1024_1694">
			<rect width="84.7059" height="84.7059" fill="white" transform="translate(17.647 17.647)" />
		</clipPath>
	</defs>
	<path d="M79.11 91.292H81.706L86.172 104.316H86.238L90.682 91.292H93.278L87.646 107H84.742L79.11 91.292ZM100.237 90.984C101.762 90.984 103.001 91.4167 103.955 92.282C104.908 93.162 105.385 94.2913 105.385 95.67C105.385 97.0047 104.871 98.244 103.845 99.388C103.229 100.019 102.143 100.862 100.589 101.918C98.9019 103.033 97.8899 104.023 97.5525 104.888H105.407V107H94.5825C94.5825 105.431 95.1032 104.059 96.1445 102.886C96.6872 102.241 97.8679 101.287 99.6865 100.026C100.757 99.2633 101.505 98.662 101.931 98.222C102.649 97.4153 103.009 96.5573 103.009 95.648C103.009 94.768 102.767 94.108 102.283 93.668C101.799 93.228 101.087 93.008 100.149 93.008C99.1512 93.008 98.4032 93.3453 97.9045 94.02C97.3912 94.6653 97.1125 95.626 97.0685 96.902H94.6705C94.6999 95.142 95.2059 93.734 96.1885 92.678C97.1859 91.5487 98.5352 90.984 100.237 90.984Z" fill="white" />
</svg>
